<?xml version="1.0" encoding="utf-8" standalone="no"?>
<!DOCTYPE svg PUBLIC "-//W3C//DTD SVG 1.1//EN"
  "http://www.w3.org/Graphics/SVG/1.1/DTD/svg11.dtd">
<svg xmlns:xlink="http://www.w3.org/1999/xlink" width="322.160156pt" height="275.608984pt" viewBox="0 0 322.160156 275.608984" xmlns="http://www.w3.org/2000/svg" version="1.1">
 <metadata>
  <rdf:RDF xmlns:dc="http://purl.org/dc/elements/1.1/" xmlns:cc="http://creativecommons.org/ns#" xmlns:rdf="http://www.w3.org/1999/02/22-rdf-syntax-ns#">
   <cc:Work>
    <dc:type rdf:resource="http://purl.org/dc/dcmitype/StillImage"/>
    <dc:date>2025-09-19T10:06:06.542244</dc:date>
    <dc:format>image/svg+xml</dc:format>
    <dc:creator>
     <cc:Agent>
      <dc:title>Matplotlib v3.10.1, https://matplotlib.org/</dc:title>
     </cc:Agent>
    </dc:creator>
   </cc:Work>
  </rdf:RDF>
 </metadata>
 <defs>
  <style type="text/css">*{stroke-linejoin: round; stroke-linecap: butt}</style>
 </defs>
 <g id="figure_1">
  <g id="patch_1">
   <path d="M 0 275.608984 
L 322.160156 275.608984 
L 322.160156 0 
L 0 0 
z
" style="fill: #ffffff"/>
  </g>
  <g id="axes_1">
   <g id="patch_2">
    <path d="M 35.960156 245.511719 
L 314.960156 245.511719 
L 314.960156 23.751719 
L 35.960156 23.751719 
z
" style="fill: #ffffff"/>
   </g>
   <g id="matplotlib.axis_1">
    <g id="xtick_1">
     <g id="line2d_1">
      <defs>
       <path id="m1d4b70da4e" d="M 0 0 
L 0 2.5 
" style="stroke: #000000"/>
      </defs>
      <g>
       <use xlink:href="#m1d4b70da4e" x="52.869952" y="245.511719" style="stroke: #000000"/>
      </g>
     </g>
     <g id="text_1">
      <text style="font-size: 7.5px; font-family: 'Arial', sans-serif, serif; text-anchor: middle" x="52.869952" y="255.880078" transform="rotate(-0 52.869952 255.880078)">40</text>
     </g>
    </g>
    <g id="xtick_2">
     <g id="line2d_2">
      <g>
       <use xlink:href="#m1d4b70da4e" x="86.693771" y="245.511719" style="stroke: #000000"/>
      </g>
     </g>
     <g id="text_2">
      <text style="font-size: 7.5px; font-family: 'Arial', sans-serif, serif; text-anchor: middle" x="86.693771" y="255.880078" transform="rotate(-0 86.693771 255.880078)">60</text>
     </g>
    </g>
    <g id="xtick_3">
     <g id="line2d_3">
      <g>
       <use xlink:href="#m1d4b70da4e" x="120.51759" y="245.511719" style="stroke: #000000"/>
      </g>
     </g>
     <g id="text_3">
      <text style="font-size: 7.5px; font-family: 'Arial', sans-serif, serif; text-anchor: middle" x="120.51759" y="255.880078" transform="rotate(-0 120.51759 255.880078)">80</text>
     </g>
    </g>
    <g id="xtick_4">
     <g id="line2d_4">
      <g>
       <use xlink:href="#m1d4b70da4e" x="154.341409" y="245.511719" style="stroke: #000000"/>
      </g>
     </g>
     <g id="text_4">
      <text style="font-size: 7.5px; font-family: 'Arial', sans-serif, serif; text-anchor: middle" x="154.341409" y="255.880078" transform="rotate(-0 154.341409 255.880078)">100</text>
     </g>
    </g>
    <g id="xtick_5">
     <g id="line2d_5">
      <g>
       <use xlink:href="#m1d4b70da4e" x="188.165228" y="245.511719" style="stroke: #000000"/>
      </g>
     </g>
     <g id="text_5">
      <text style="font-size: 7.5px; font-family: 'Arial', sans-serif, serif; text-anchor: middle" x="188.165228" y="255.880078" transform="rotate(-0 188.165228 255.880078)">120</text>
     </g>
    </g>
    <g id="xtick_6">
     <g id="line2d_6">
      <g>
       <use xlink:href="#m1d4b70da4e" x="221.989047" y="245.511719" style="stroke: #000000"/>
      </g>
     </g>
     <g id="text_6">
      <text style="font-size: 7.5px; font-family: 'Arial', sans-serif, serif; text-anchor: middle" x="221.989047" y="255.880078" transform="rotate(-0 221.989047 255.880078)">140</text>
     </g>
    </g>
    <g id="xtick_7">
     <g id="line2d_7">
      <g>
       <use xlink:href="#m1d4b70da4e" x="255.812867" y="245.511719" style="stroke: #000000"/>
      </g>
     </g>
     <g id="text_7">
      <text style="font-size: 7.5px; font-family: 'Arial', sans-serif, serif; text-anchor: middle" x="255.812867" y="255.880078" transform="rotate(-0 255.812867 255.880078)">160</text>
     </g>
    </g>
    <g id="xtick_8">
     <g id="line2d_8">
      <g>
       <use xlink:href="#m1d4b70da4e" x="289.636686" y="245.511719" style="stroke: #000000"/>
      </g>
     </g>
     <g id="text_8">
      <text style="font-size: 7.5px; font-family: 'Arial', sans-serif, serif; text-anchor: middle" x="289.636686" y="255.880078" transform="rotate(-0 289.636686 255.880078)">180</text>
     </g>
    </g>
    <g id="text_9">
     <text style="font-size: 7.5px; font-family: 'Arial', sans-serif, serif; text-anchor: middle" x="175.460156" y="266.830469" transform="rotate(-0 175.460156 266.830469)">Time (ms)</text>
    </g>
   </g>
   <g id="matplotlib.axis_2">
    <g id="ytick_1">
     <g id="line2d_9">
      <defs>
       <path id="m60315e9c71" d="M 0 0 
L -2.5 0 
" style="stroke: #000000"/>
      </defs>
      <g>
       <use xlink:href="#m60315e9c71" x="35.960156" y="224.893912" style="stroke: #000000"/>
      </g>
     </g>
     <g id="text_10">
      <text style="font-size: 7.5px; font-family: 'Arial', sans-serif, serif; text-anchor: end" x="30.960156" y="227.578092" transform="rotate(-0 30.960156 227.578092)">−80</text>
     </g>
    </g>
    <g id="ytick_2">
     <g id="line2d_10">
      <g>
       <use xlink:href="#m60315e9c71" x="35.960156" y="184.681037" style="stroke: #000000"/>
      </g>
     </g>
     <g id="text_11">
      <text style="font-size: 7.5px; font-family: 'Arial', sans-serif, serif; text-anchor: end" x="30.960156" y="187.365216" transform="rotate(-0 30.960156 187.365216)">−60</text>
     </g>
    </g>
    <g id="ytick_3">
     <g id="line2d_11">
      <g>
       <use xlink:href="#m60315e9c71" x="35.960156" y="144.468161" style="stroke: #000000"/>
      </g>
     </g>
     <g id="text_12">
      <text style="font-size: 7.5px; font-family: 'Arial', sans-serif, serif; text-anchor: end" x="30.960156" y="147.152341" transform="rotate(-0 30.960156 147.152341)">−40</text>
     </g>
    </g>
    <g id="ytick_4">
     <g id="line2d_12">
      <g>
       <use xlink:href="#m60315e9c71" x="35.960156" y="104.255286" style="stroke: #000000"/>
      </g>
     </g>
     <g id="text_13">
      <text style="font-size: 7.5px; font-family: 'Arial', sans-serif, serif; text-anchor: end" x="30.960156" y="106.939465" transform="rotate(-0 30.960156 106.939465)">−20</text>
     </g>
    </g>
    <g id="ytick_5">
     <g id="line2d_13">
      <g>
       <use xlink:href="#m60315e9c71" x="35.960156" y="64.04241" style="stroke: #000000"/>
      </g>
     </g>
     <g id="text_14">
      <text style="font-size: 7.5px; font-family: 'Arial', sans-serif, serif; text-anchor: end" x="30.960156" y="66.72659" transform="rotate(-0 30.960156 66.72659)">0</text>
     </g>
    </g>
    <g id="ytick_6">
     <g id="line2d_14">
      <g>
       <use xlink:href="#m60315e9c71" x="35.960156" y="23.829535" style="stroke: #000000"/>
      </g>
     </g>
     <g id="text_15">
      <text style="font-size: 7.5px; font-family: 'Arial', sans-serif, serif; text-anchor: end" x="30.960156" y="26.513714" transform="rotate(-0 30.960156 26.513714)">20</text>
     </g>
    </g>
    <g id="text_16">
     <text style="font-size: 7.5px; font-family: 'Arial', sans-serif, serif; text-anchor: middle" x="12.659766" y="134.631719" transform="rotate(-90 12.659766 134.631719)">Voltage (mV)</text>
    </g>
   </g>
   <g id="line2d_15">
    <path d="M 48.641974 231.114356 
L 48.726534 231.240006 
L 48.768814 231.114356 
L 48.895653 231.051509 
L 49.022492 231.240006 
L 49.191611 231.114356 
L 49.233891 231.177189 
L 49.276171 231.051509 
L 49.40301 231.114356 
L 49.44529 231.177189 
L 49.48757 231.114356 
L 49.52985 230.925859 
L 49.572129 231.114356 
L 49.698969 231.177189 
L 49.825808 231.240006 
L 49.994927 231.114356 
L 50.037207 231.240006 
L 50.079487 231.114356 
L 50.333165 231.177189 
L 50.375445 230.988676 
L 50.417725 231.177189 
L 50.713683 231.177189 
L 50.798243 231.240006 
L 50.840523 231.051509 
L 50.882802 231.051509 
L 51.009642 231.302839 
L 51.221041 231.114356 
L 51.39016 231.240006 
L 51.559279 231.177189 
L 51.812957 231.114356 
L 51.897517 231.177189 
L 51.982077 231.051509 
L 52.066636 231.114356 
L 52.151196 231.177189 
L 52.235755 230.988676 
L 52.278035 231.051509 
L 52.489434 231.177189 
L 52.658553 231.114356 
L 52.700833 231.302839 
L 52.743113 231.114356 
L 52.869952 231.114356 
L 52.912232 231.240006 
L 52.996791 231.177189 
L 53.16591 231.114356 
L 53.20819 231.114356 
L 53.25047 230.988676 
L 53.29275 231.177189 
L 53.335029 231.051509 
L 53.504148 231.365687 
L 53.673268 231.114356 
L 54.307464 231.114356 
L 54.392024 231.240006 
L 54.476583 231.114356 
L 54.518863 231.177189 
L 54.603423 231.240006 
L 54.645702 231.114356 
L 54.772542 231.302839 
L 54.941661 231.177189 
L 55.02622 231.240006 
L 55.0685 231.114356 
L 55.15306 231.177189 
L 55.195339 231.365687 
L 55.237619 231.177189 
L 55.279899 231.177189 
L 55.364458 231.365687 
L 55.406738 231.240006 
L 55.491298 231.240006 
L 55.533578 231.114356 
L 55.575857 231.302839 
L 56.125494 231.240006 
L 56.167774 231.177189 
L 56.210054 231.302839 
L 56.252334 231.240006 
L 56.506012 231.302839 
L 56.548292 231.365687 
L 56.590572 231.302839 
L 56.801971 231.177189 
L 57.055649 231.365687 
L 57.182489 231.177189 
L 57.224769 231.240006 
L 57.267048 231.365687 
L 57.309328 231.302839 
L 57.478447 231.114356 
L 57.563007 231.051509 
L 57.605286 231.114356 
L 57.732126 231.240006 
L 57.816685 231.114356 
L 57.858965 231.240006 
L 57.901245 231.177189 
L 57.943525 231.114356 
L 57.985804 231.302839 
L 58.028084 231.114356 
L 58.070364 230.988676 
L 58.112644 231.051509 
L 58.154924 231.240006 
L 58.239483 231.177189 
L 58.408602 231.240006 
L 58.450882 231.302839 
L 58.493162 231.177189 
L 58.577721 231.114356 
L 58.620001 231.240006 
L 58.704561 231.177189 
L 58.74684 231.114356 
L 58.78912 231.177189 
L 58.958239 231.240006 
L 59.000519 231.114356 
L 59.042799 231.240006 
L 59.127358 231.240006 
L 59.169638 231.051509 
L 59.254198 231.177189 
L 59.338757 231.302839 
L 59.423317 231.240006 
L 59.592436 231.177189 
L 59.676995 231.240006 
L 59.719275 231.051509 
L 59.761555 231.302839 
L 59.803835 231.114356 
L 59.888394 231.114356 
L 60.015234 231.365687 
L 60.184353 231.051509 
L 60.311192 231.240006 
L 60.395752 231.051509 
L 60.438031 231.114356 
L 60.60715 231.365687 
L 60.64943 231.051509 
L 60.73399 231.240006 
L 61.029948 230.925859 
L 61.156788 230.988676 
L 61.199067 230.925859 
L 61.241347 231.114356 
L 61.325907 230.988676 
L 61.495026 231.177189 
L 61.621865 230.988676 
L 61.790984 231.240006 
L 61.833264 231.051509 
L 61.875544 231.114356 
L 61.960103 231.240006 
L 62.086943 231.114356 
L 62.382901 231.114356 
L 62.425181 230.925859 
L 62.46746 231.114356 
L 62.63658 231.051509 
L 62.721139 230.988676 
L 62.763419 231.177189 
L 62.847978 231.051509 
L 62.932538 231.114356 
L 63.017098 230.988676 
L 63.270776 230.988676 
L 63.313056 231.114356 
L 63.397616 231.051509 
L 63.482175 231.051509 
L 63.524455 231.177189 
L 63.566735 230.988676 
L 63.609014 230.988676 
L 63.693574 231.240006 
L 63.778133 231.177189 
L 63.820413 231.177189 
L 63.989532 230.988676 
L 64.074092 231.114356 
L 64.116372 230.925859 
L 64.158651 231.114356 
L 64.200931 231.114356 
L 64.243211 231.240006 
L 64.285491 231.114356 
L 64.41233 231.114356 
L 64.49689 230.988676 
L 64.539169 231.114356 
L 64.623729 231.051509 
L 64.666009 230.988676 
L 64.708289 231.114356 
L 64.835128 231.051509 
L 65.046527 230.863011 
L 65.215646 231.051509 
L 65.384765 230.988676 
L 65.427045 231.114356 
L 65.469324 231.051509 
L 65.511604 230.988676 
L 65.553884 231.051509 
L 65.723003 231.177189 
L 65.765283 231.114356 
L 65.807563 231.177189 
L 65.849842 231.240006 
L 65.892122 231.051509 
L 65.976682 231.177189 
L 66.103521 230.988676 
L 66.145801 231.177189 
L 66.188081 230.988676 
L 66.27264 231.051509 
L 66.31492 231.177189 
L 66.399479 231.114356 
L 66.441759 231.051509 
L 66.484039 231.114356 
L 66.610878 231.240006 
L 66.695438 231.051509 
L 66.737718 231.114356 
L 66.779997 231.114356 
L 66.822277 231.240006 
L 66.864557 231.177189 
L 66.949117 231.051509 
L 66.991396 231.114356 
L 67.118236 230.988676 
L 67.160515 231.302839 
L 67.245075 231.114356 
L 67.287355 231.177189 
L 67.329634 231.051509 
L 67.371914 231.114356 
L 67.414194 230.988676 
L 67.456474 231.114356 
L 67.667873 231.114356 
L 67.710152 230.988676 
L 67.752432 231.114356 
L 67.879272 231.051509 
L 67.921551 230.988676 
L 67.963831 231.051509 
L 68.006111 231.114356 
L 68.048391 230.988676 
L 68.428909 230.988676 
L 68.471188 231.177189 
L 68.555748 231.114356 
L 68.598028 230.925859 
L 68.682587 230.988676 
L 68.809427 230.925859 
L 68.936266 230.988676 
L 69.105385 230.925859 
L 69.274504 230.925859 
L 69.316784 231.051509 
L 69.359064 230.925859 
L 69.570463 230.988676 
L 69.612742 231.051509 
L 69.697302 230.988676 
L 69.824141 231.051509 
L 69.866421 231.931181 
L 69.908701 231.617002 
L 70.1201 230.234684 
L 70.754296 226.967404 
L 70.838856 226.841738 
L 71.050255 226.087732 
L 71.388493 225.019577 
L 71.430773 225.019577 
L 71.684451 224.265586 
L 71.769011 224.328434 
L 72.318648 222.946101 
L 72.360928 223.008933 
L 72.403207 222.883284 
L 72.699166 222.317775 
L 72.741446 222.506272 
L 72.783725 222.192109 
L 75.489631 218.296502 
L 75.531911 218.35932 
L 75.57419 218.233654 
L 75.61647 218.233654 
L 75.827869 217.856659 
L 75.870149 217.856659 
L 76.039268 217.605328 
L 76.166107 217.542496 
L 77.265381 215.97168 
L 77.307661 216.097345 
L 77.349941 215.97168 
L 77.60362 215.469019 
L 77.688179 215.531852 
L 77.730459 215.469019 
L 78.449215 214.52653 
L 78.533775 214.463697 
L 78.576054 214.652195 
L 78.702894 214.2752 
L 78.787453 214.338032 
L 79.37937 213.646873 
L 79.42165 213.646873 
L 79.548489 213.458376 
L 79.590769 213.521208 
L 79.633049 213.395543 
L 79.844448 212.955715 
L 79.929007 213.144212 
L 79.971287 212.955715 
L 80.013567 212.955715 
L 80.140406 212.767217 
L 80.224966 212.767217 
L 80.394085 212.390221 
L 80.478644 212.641551 
L 80.605484 212.327388 
L 81.155121 211.699062 
L 81.23968 211.63623 
L 81.493359 211.133569 
L 81.535639 211.133569 
L 81.577918 211.259234 
L 81.620198 211.070736 
L 81.662478 211.133569 
L 81.704758 211.070736 
L 81.873877 210.819406 
L 82.000716 210.756573 
L 82.085276 210.568075 
L 82.127555 210.630908 
L 82.169835 210.756573 
L 82.212115 210.568075 
L 82.254395 210.630908 
L 82.296674 210.568075 
L 82.592633 210.002582 
L 82.634913 210.128247 
L 82.719472 210.065414 
L 82.846312 209.751251 
L 82.888591 209.814084 
L 82.973151 209.814084 
L 83.18455 209.499921 
L 83.226829 209.562753 
L 83.311389 209.499921 
L 83.903306 208.745929 
L 83.945586 208.808762 
L 83.987865 208.745929 
L 84.326104 208.368933 
L 84.368383 208.431766 
L 84.537502 208.05477 
L 84.579782 208.180436 
L 84.622062 207.991938 
L 84.664342 208.05477 
L 84.706622 207.991938 
L 84.9603 207.740607 
L 85.00258 207.80344 
L 85.08714 207.740607 
L 85.594497 207.112281 
L 85.636777 207.175114 
L 85.679056 207.049448 
L 85.721336 207.112281 
L 85.890455 206.860951 
L 85.932735 206.923783 
L 85.975015 206.798118 
L 86.270973 206.483955 
L 86.313253 206.546788 
L 86.355533 206.483955 
L 86.77833 205.981294 
L 86.82061 206.106959 
L 86.86289 205.918461 
L 87.074289 205.855629 
L 87.201128 205.729964 
L 87.243408 205.729964 
L 87.412527 205.478633 
L 87.454807 205.478633 
L 87.623926 205.227303 
L 87.666206 205.352968 
L 87.708486 205.227303 
L 87.835325 205.038805 
L 87.919884 204.975972 
L 88.004444 205.038805 
L 88.046724 204.787474 
L 88.131283 204.975972 
L 88.258123 204.724642 
L 88.80776 204.096315 
L 88.892319 204.033483 
L 89.061438 203.844985 
L 89.103718 203.907818 
L 89.145998 203.844985 
L 89.526516 203.467989 
L 89.568796 203.530822 
L 89.653355 203.153826 
L 89.695635 203.279491 
L 89.737915 203.342324 
L 89.780194 203.216659 
L 89.864754 203.153826 
L 90.076153 202.965328 
L 90.118433 203.090994 
L 90.160712 202.965328 
L 90.202992 202.77683 
L 90.287552 202.839663 
L 90.414391 202.77683 
L 90.710349 202.399835 
L 90.752629 202.462667 
L 90.837189 202.399835 
L 91.175427 201.897174 
L 90.921748 202.462667 
L 91.217707 202.022839 
L 91.302266 202.022839 
L 91.429106 201.771509 
L 91.513665 201.834341 
L 91.682784 201.457346 
L 91.725064 201.645843 
L 91.767344 201.394513 
L 91.809624 201.457346 
L 91.894183 201.394513 
L 92.190142 201.08035 
L 92.232421 201.143182 
L 92.274701 201.08035 
L 92.44382 200.766187 
L 92.4861 200.829019 
L 92.52838 200.640521 
L 92.612939 200.766187 
L 92.739779 200.514856 
L 92.782058 200.577689 
L 92.951177 200.514856 
L 93.035737 200.263526 
L 93.120297 200.326358 
L 93.162576 200.326358 
L 93.247136 200.200693 
L 93.289416 200.263526 
L 93.754493 199.698032 
L 93.796773 199.823697 
L 93.881333 199.572367 
L 93.923612 199.698032 
L 94.092731 199.509534 
L 94.38869 199.258204 
L 94.43097 199.258204 
L 94.600089 199.006873 
L 94.726928 198.944041 
L 94.980607 198.755543 
L 95.065166 198.69271 
L 95.107446 198.504212 
L 95.192005 198.629878 
L 95.530244 198.315715 
L 95.572523 198.315715 
L 95.657083 198.127217 
L 95.699363 198.190049 
L 95.741643 198.190049 
L 95.868482 198.001552 
L 95.953041 198.064384 
L 96.037601 197.875886 
L 96.079881 197.938719 
L 96.629518 197.310393 
L 96.925476 197.24756 
L 97.179155 196.807732 
L 97.221435 196.807732 
L 97.390554 196.619234 
L 97.644232 196.430736 
L 97.771072 196.430736 
L 97.940191 196.05374 
L 98.10931 196.242238 
L 98.278429 195.865243 
L 98.447548 195.80241 
L 98.574387 195.613912 
L 98.616667 195.739577 
L 98.658947 195.739577 
L 98.785786 195.488247 
L 98.828066 195.551079 
L 98.997185 195.174084 
L 99.039465 195.174084 
L 99.081745 195.299749 
L 99.124024 195.111251 
L 99.504542 194.734255 
L 99.631382 194.671423 
L 99.842781 194.35726 
L 99.92734 194.545758 
L 100.096459 194.168762 
L 100.138739 194.168762 
L 100.307858 193.980264 
L 100.350138 194.105929 
L 100.392418 193.917431 
L 100.646096 193.603268 
L 100.688376 193.666101 
L 100.730656 193.728934 
L 100.772936 193.603268 
L 100.857495 193.666101 
L 100.899775 193.477603 
L 101.026614 193.41477 
L 101.111174 193.351938 
L 101.153454 193.477603 
L 101.195733 193.289105 
L 101.238013 193.351938 
L 101.322573 193.289105 
L 101.364852 193.037775 
L 101.449412 193.100607 
L 101.491692 193.100607 
L 101.618531 192.974942 
L 101.660811 193.037775 
L 101.703091 192.974942 
L 101.87221 192.660787 
L 101.91449 192.786444 
L 101.956769 192.849277 
L 102.041329 192.786444 
L 102.210448 192.786444 
L 102.379567 192.472289 
L 102.421847 192.535121 
L 102.464127 192.472289 
L 102.675525 192.283783 
L 102.717805 192.409449 
L 102.760085 192.283783 
L 102.929204 192.03246 
L 102.971484 192.158126 
L 103.013764 192.03246 
L 103.098323 191.718297 
L 103.182883 191.781122 
L 103.225163 191.781122 
L 103.267442 191.655465 
L 103.352002 191.718297 
L 103.394282 191.718297 
L 103.563401 191.341302 
L 103.605681 191.404134 
L 103.73252 191.341302 
L 103.943919 190.964298 
L 104.028478 190.901473 
L 104.070758 191.027139 
L 104.239877 190.712976 
L 104.408996 190.650135 
L 104.451276 190.650135 
L 104.578115 190.461645 
L 104.662675 190.58731 
L 104.831794 190.210315 
L 104.874074 190.210315 
L 104.916353 190.084649 
L 104.958633 190.147474 
L 105.000913 190.210315 
L 105.043193 189.958984 
L 105.127752 190.084649 
L 105.296871 189.833311 
L 105.423711 189.770486 
L 105.59283 189.456323 
L 105.63511 189.519148 
L 105.677389 189.393483 
L 105.846509 189.14216 
L 105.888788 189.204985 
L 105.931068 189.14216 
L 106.015628 188.953662 
L 106.057907 189.07932 
L 106.692104 188.262496 
L 106.776664 188.325336 
L 106.988062 188.011173 
L 107.072622 188.011173 
L 107.199461 187.822675 
L 107.241741 188.011173 
L 107.284021 187.822675 
L 107.36858 187.759835 
L 107.875938 187.194349 
L 107.918217 187.257182 
L 108.087337 186.943011 
L 108.214176 186.943011 
L 108.383295 186.691688 
L 108.425575 186.566023 
L 108.467855 186.691688 
L 108.510134 186.691688 
L 108.721533 186.126194 
L 108.763813 186.126194 
L 108.806093 185.937697 
L 108.890652 186.000522 
L 109.39801 185.372195 
L 109.440289 185.435036 
L 109.482569 185.30937 
L 109.524849 185.372195 
L 110.750962 183.424384 
L 110.962361 182.858898 
L 111.004641 182.921731 
L 111.0892 182.858898 
L 111.21604 182.544735 
L 111.25832 182.60756 
L 111.554278 181.665071 
L 111.638838 181.602246 
L 111.934796 180.97392 
L 112.315314 178.77477 
L 112.399873 171.486194 
L 112.568993 125.429882 
L 112.864951 50.093569 
L 112.99179 43.935973 
L 113.03407 44.187299 
L 113.160909 50.659063 
L 113.414588 85.279835 
L 113.921945 158.919663 
L 114.302463 182.733233 
L 114.682981 192.535121 
L 115.021219 196.179406 
L 115.444017 197.687388 
L 115.528577 197.624556 
L 115.697696 197.498891 
L 115.739976 197.561723 
L 115.951374 197.059062 
L 115.993654 197.121895 
L 116.035934 197.059062 
L 116.247333 196.430736 
L 116.331892 196.367903 
L 116.543291 195.676745 
L 117.008369 194.545758 
L 117.092928 194.482925 
L 117.473446 193.603268 
L 117.515726 193.603268 
L 117.727125 193.289105 
L 117.769405 193.289105 
L 117.938524 192.974942 
L 117.980804 192.974942 
L 118.107643 192.597946 
L 118.149923 192.723612 
L 118.530441 192.220958 
L 118.57272 192.346624 
L 118.615 192.220958 
L 118.784119 192.03246 
L 118.868679 191.96962 
L 118.910959 192.03246 
L 119.080078 192.03246 
L 119.206917 191.843963 
L 119.249197 191.906795 
L 119.291477 191.781122 
L 119.333756 191.718297 
L 119.376036 191.906795 
L 119.418316 191.655465 
L 119.460596 191.592625 
L 119.502875 191.781122 
L 119.587435 191.655465 
L 119.714274 191.655465 
L 119.841114 191.466959 
L 120.010233 191.655465 
L 120.052513 191.404134 
L 120.094792 191.655465 
L 120.179352 191.718297 
L 120.263911 191.592625 
L 120.306191 191.718297 
L 120.348471 191.592625 
L 120.433031 191.655465 
L 120.51759 191.5298 
L 120.60215 191.655465 
L 120.644429 191.592625 
L 120.982668 191.5298 
L 121.067227 191.718297 
L 121.109507 191.5298 
L 121.151787 191.655465 
L 121.194066 191.718297 
L 121.278626 191.5298 
L 121.320906 191.592625 
L 121.363186 191.781122 
L 121.447745 191.718297 
L 121.490025 191.592625 
L 121.532305 191.718297 
L 121.701424 191.781122 
L 121.870543 191.718297 
L 121.912823 191.843963 
L 121.997382 191.781122 
L 122.208781 192.03246 
L 122.251061 191.96962 
L 122.46246 191.96962 
L 122.504739 192.095285 
L 122.589299 192.03246 
L 122.631579 192.03246 
L 122.673859 191.906795 
L 122.716138 192.03246 
L 122.800698 192.095285 
L 122.885257 191.96962 
L 123.012097 192.283783 
L 123.054376 192.095285 
L 123.096656 192.283783 
L 123.265775 192.409449 
L 123.434894 192.283783 
L 123.688573 192.535121 
L 123.773133 192.409449 
L 123.815412 192.535121 
L 123.899972 192.472289 
L 124.153651 192.472289 
L 124.28049 192.660787 
L 124.32277 192.597946 
L 124.407329 192.660787 
L 124.491889 192.660787 
L 124.534169 192.786444 
L 124.618728 192.723612 
L 124.787847 192.786444 
L 124.872407 192.849277 
L 124.914687 192.723612 
L 125.083806 192.849277 
L 125.126085 192.786444 
L 125.168365 192.912109 
L 125.210645 192.849277 
L 125.252925 192.912109 
L 125.295205 192.849277 
L 125.422044 192.786444 
L 125.464324 192.912109 
L 125.506603 192.849277 
L 125.591163 192.912109 
L 125.633443 192.786444 
L 125.760282 193.037775 
L 125.929401 192.849277 
L 126.18308 193.037775 
L 126.309919 193.100607 
L 126.479038 193.351938 
L 126.521318 193.226273 
L 126.690437 193.289105 
L 126.732717 193.351938 
L 126.817276 193.289105 
L 126.901836 193.226273 
L 126.944116 193.41477 
L 127.028675 193.351938 
L 127.070955 193.289105 
L 127.113235 193.41477 
L 127.197794 193.351938 
L 127.282354 193.603268 
L 127.324634 193.477603 
L 127.366913 193.728934 
L 127.409193 193.540436 
L 127.493753 193.603268 
L 127.662872 193.666101 
L 127.831991 193.603268 
L 127.95883 193.791766 
L 128.08567 193.666101 
L 128.339348 193.854599 
L 128.466188 193.728934 
L 128.635307 193.917431 
L 128.677586 193.791766 
L 128.719866 193.854599 
L 128.846706 193.980264 
L 128.931265 194.043097 
L 129.015825 193.791766 
L 129.184944 194.043097 
L 129.311783 193.980264 
L 129.354063 194.105929 
L 129.438622 194.043097 
L 129.692301 193.980264 
L 129.734581 193.917431 
L 129.776861 193.980264 
L 129.86142 194.105929 
L 129.9037 193.980264 
L 129.94598 194.168762 
L 129.988259 194.043097 
L 130.115099 194.168762 
L 130.157379 194.043097 
L 130.199658 194.231594 
L 130.453337 194.043097 
L 130.537896 194.231594 
L 130.622456 194.168762 
L 130.664736 194.105929 
L 130.707016 194.35726 
L 130.749295 194.043097 
L 130.876135 194.231594 
L 130.918414 194.168762 
L 130.960694 194.294427 
L 131.002974 194.231594 
L 131.129813 194.35726 
L 131.172093 194.231594 
L 131.214373 194.294427 
L 131.256653 194.35726 
L 131.341212 194.294427 
L 131.637171 194.35726 
L 131.76401 194.420092 
L 131.890849 194.35726 
L 131.975409 194.545758 
L 132.017689 194.420092 
L 132.059968 194.420092 
L 132.229087 194.60859 
L 132.398207 194.545758 
L 132.482766 194.482925 
L 132.525046 194.545758 
L 132.567326 194.671423 
L 132.651885 194.60859 
L 132.694165 194.545758 
L 132.736445 194.60859 
L 132.778724 194.671423 
L 132.821004 194.482925 
L 132.905564 194.60859 
L 133.032403 194.734255 
L 133.159242 194.545758 
L 133.412921 194.734255 
L 133.53976 194.671423 
L 133.62432 194.60859 
L 133.6666 194.734255 
L 133.751159 194.60859 
L 133.793439 194.734255 
L 133.835719 194.671423 
L 133.877999 194.545758 
L 133.962558 194.60859 
L 134.004838 194.734255 
L 134.047118 194.545758 
L 134.089397 194.671423 
L 134.258517 194.734255 
L 134.765874 194.734255 
L 134.808154 194.60859 
L 134.892713 194.671423 
L 135.019553 194.797088 
L 135.061832 194.60859 
L 135.146392 194.734255 
L 135.273231 194.797088 
L 135.40007 194.671423 
L 135.48463 194.859921 
L 135.52691 194.797088 
L 135.56919 194.734255 
L 135.611469 194.797088 
L 135.738309 194.859921 
L 135.907428 194.734255 
L 136.076547 194.859921 
L 136.245666 194.671423 
L 136.414785 194.797088 
L 136.541624 194.60859 
L 136.583904 194.671423 
L 136.626184 194.797088 
L 136.710743 194.734255 
L 136.795303 194.734255 
L 136.837583 194.60859 
L 136.879863 194.734255 
L 136.964422 194.797088 
L 137.006702 194.734255 
L 137.175821 194.671423 
L 137.30266 194.734255 
L 137.34494 194.60859 
L 137.4295 194.671423 
L 137.514059 194.734255 
L 137.598619 194.60859 
L 137.767738 194.734255 
L 137.852297 194.60859 
L 137.894577 194.671423 
L 138.190536 194.60859 
L 138.232815 194.545758 
L 138.275095 194.734255 
L 138.359655 194.60859 
L 138.401934 194.671423 
L 138.444214 194.482925 
L 138.486494 194.734255 
L 138.528774 194.60859 
L 138.571054 194.482925 
L 138.613333 194.545758 
L 138.655613 194.671423 
L 138.740173 194.60859 
L 138.867012 194.60859 
L 138.909292 194.420092 
L 138.993851 194.545758 
L 139.078411 194.420092 
L 139.120691 194.482925 
L 139.20525 194.420092 
L 139.24753 194.482925 
L 139.416649 194.545758 
L 139.458929 194.60859 
L 139.501209 194.482925 
L 139.585768 194.482925 
L 139.670328 194.60859 
L 139.712607 194.545758 
L 139.754887 194.60859 
L 139.797167 194.545758 
L 139.839447 194.482925 
L 139.881727 194.60859 
L 139.924006 194.545758 
L 140.093125 194.482925 
L 140.177685 194.671423 
L 140.219965 194.60859 
L 140.262244 194.671423 
L 140.346804 194.60859 
L 140.431364 194.482925 
L 140.473643 194.545758 
L 140.515923 194.60859 
L 140.558203 194.420092 
L 140.600483 194.671423 
L 140.642762 194.545758 
L 141.361519 194.482925 
L 141.403798 194.35726 
L 141.446078 194.482925 
L 141.488358 194.482925 
L 141.572917 194.545758 
L 141.615197 194.35726 
L 141.742037 194.420092 
L 141.826596 194.35726 
L 141.868876 194.545758 
L 141.953435 194.482925 
L 141.995715 194.420092 
L 142.080275 194.482925 
L 142.164834 194.420092 
L 142.249394 194.545758 
L 142.376233 194.35726 
L 142.587632 194.545758 
L 142.714471 194.420092 
L 142.756751 194.482925 
L 142.799031 194.35726 
L 142.841311 194.420092 
L 142.96815 194.35726 
L 143.01043 194.420092 
L 143.05271 194.294427 
L 143.094989 194.294427 
L 143.221829 194.420092 
L 143.348668 194.294427 
L 143.390948 194.482925 
L 143.433228 194.231594 
L 143.517787 194.168762 
L 143.602347 194.420092 
L 143.686906 194.231594 
L 143.729186 194.35726 
L 143.940585 194.168762 
L 143.982865 194.294427 
L 144.067424 194.231594 
L 144.151984 194.294427 
L 144.194263 194.043097 
L 144.236543 194.294427 
L 144.405662 194.105929 
L 144.532502 194.294427 
L 144.701621 193.917431 
L 144.743901 194.168762 
L 144.82846 194.043097 
L 144.87074 194.043097 
L 144.91302 194.168762 
L 144.955299 194.105929 
L 145.082139 193.980264 
L 145.124418 194.043097 
L 145.547216 193.980264 
L 145.589496 193.854599 
L 145.631776 193.917431 
L 145.758615 193.980264 
L 145.843175 194.043097 
L 145.970014 193.791766 
L 146.012294 193.854599 
L 146.054574 193.728934 
L 146.096853 193.728934 
L 146.139133 193.917431 
L 146.181413 193.728934 
L 146.350532 193.666101 
L 146.477371 193.540436 
L 146.604211 193.666101 
L 146.815609 193.540436 
L 146.857889 193.666101 
L 146.942449 193.603268 
L 146.984729 193.666101 
L 147.027008 193.540436 
L 147.069288 193.603268 
L 147.449806 193.540436 
L 147.492086 193.477603 
L 147.534366 193.603268 
L 147.618925 193.666101 
L 147.661205 193.477603 
L 147.703485 193.603268 
L 147.745764 193.728934 
L 147.788044 193.603268 
L 147.830324 193.41477 
L 147.914884 193.477603 
L 147.957163 193.477603 
L 147.999443 193.666101 
L 148.041723 193.41477 
L 148.084003 193.603268 
L 148.253122 193.41477 
L 148.337681 193.540436 
L 148.379961 193.477603 
L 148.5068 193.289105 
L 148.54908 193.477603 
L 148.63364 193.351938 
L 148.675919 193.351938 
L 148.802759 193.226273 
L 148.929598 193.289105 
L 149.014158 193.351938 
L 149.056437 193.289105 
L 149.267836 193.16344 
L 149.310116 193.226273 
L 149.352396 193.037775 
L 149.436955 193.100607 
L 149.606075 193.037775 
L 149.690634 193.037775 
L 149.732914 192.912109 
L 149.775194 193.100607 
L 149.817473 192.974942 
L 149.944313 193.037775 
L 150.071152 192.849277 
L 150.197991 192.912109 
L 150.240271 192.849277 
L 150.324831 192.912109 
L 150.40939 192.974942 
L 150.45167 192.912109 
L 150.663069 192.849277 
L 150.747628 192.660787 
L 150.789908 192.723612 
L 150.959027 192.660787 
L 151.001307 192.723612 
L 151.043587 192.597946 
L 151.085867 192.660787 
L 151.212706 192.723612 
L 151.254986 192.786444 
L 151.339545 192.723612 
L 151.381825 192.723612 
L 151.508664 192.597946 
L 151.635504 192.660787 
L 151.677783 192.346624 
L 151.720063 192.597946 
L 151.973742 192.535121 
L 152.016022 192.409449 
L 152.058301 192.597946 
L 152.142861 192.409449 
L 152.22742 192.472289 
L 152.2697 192.597946 
L 152.31198 192.535121 
L 152.438819 192.409449 
L 152.523379 192.535121 
L 152.565659 192.472289 
L 152.734778 192.409449 
L 152.777058 192.597946 
L 152.819337 192.535121 
L 152.946177 192.283783 
L 152.988456 192.409449 
L 153.073016 192.346624 
L 153.115296 192.346624 
L 153.157576 192.472289 
L 153.199855 192.346624 
L 153.580373 192.283783 
L 153.664933 192.346624 
L 153.707213 192.158126 
L 153.791772 192.095285 
L 153.876332 192.220958 
L 154.003171 192.095285 
L 154.045451 192.158126 
L 154.087731 192.283783 
L 154.17229 192.220958 
L 154.21457 192.03246 
L 154.299129 192.095285 
L 154.383689 192.158126 
L 154.552808 191.96962 
L 154.595088 191.906795 
L 154.637368 192.03246 
L 154.679647 191.96962 
L 154.721927 192.03246 
L 154.764207 191.906795 
L 154.806487 191.96962 
L 154.933326 191.843963 
L 154.975606 191.906795 
L 155.102445 191.718297 
L 155.398404 191.718297 
L 155.440683 191.592625 
L 155.482963 191.718297 
L 155.567523 191.718297 
L 155.609802 191.592625 
L 155.652082 191.718297 
L 155.778921 191.655465 
L 155.863481 191.5298 
L 155.905761 191.655465 
L 155.99032 191.592625 
L 156.07488 191.5298 
L 156.11716 191.655465 
L 156.159439 191.592625 
L 156.243999 191.655465 
L 156.328559 191.466959 
L 156.413118 191.5298 
L 156.582237 191.341302 
L 156.666797 191.404134 
L 156.709077 191.341302 
L 157.131874 191.278461 
L 157.258714 191.215636 
L 157.385553 191.278461 
L 157.554672 191.089971 
L 157.596952 191.152796 
L 157.723791 191.152796 
L 157.85063 191.027139 
L 157.89291 191.089971 
L 157.93519 190.838633 
L 157.97747 191.027139 
L 158.104309 191.027139 
L 158.188869 190.838633 
L 158.231148 190.964298 
L 158.400267 190.775808 
L 158.527107 190.838633 
L 158.569387 190.901473 
L 158.696226 190.712976 
L 158.907625 190.650135 
L 159.076744 190.58731 
L 159.245863 190.58731 
L 159.330423 190.398812 
L 159.372702 190.52447 
L 159.457262 190.650135 
L 159.499542 190.52447 
L 159.541821 190.52447 
L 159.626381 190.650135 
L 159.71094 190.398812 
L 159.7955 190.461645 
L 160.006899 190.461645 
L 160.133738 190.210315 
L 160.218298 190.335972 
L 160.260578 190.084649 
L 160.345137 190.210315 
L 160.471976 190.021809 
L 160.514256 190.084649 
L 160.556536 189.958984 
L 160.598816 189.896151 
L 160.641095 190.021809 
L 160.683375 190.084649 
L 160.725655 189.958984 
L 160.767935 190.021809 
L 160.852494 189.958984 
L 160.894774 190.084649 
L 160.937054 190.021809 
L 161.106173 189.770486 
L 161.233012 189.833311 
L 161.275292 189.707646 
L 161.359852 189.770486 
L 161.402131 189.707646 
L 161.444411 189.896151 
L 161.528971 189.833311 
L 161.571251 189.644821 
L 161.65581 189.707646 
L 161.69809 189.770486 
L 161.74037 189.644821 
L 162.163167 189.644821 
L 162.290007 189.456323 
L 162.459126 189.644821 
L 162.712804 189.456323 
L 163.220162 189.519148 
L 163.262441 189.581988 
L 163.304721 189.330658 
L 163.347001 189.393483 
L 163.389281 189.519148 
L 163.47384 189.456323 
L 163.5584 189.267825 
L 163.60068 189.519148 
L 163.642959 189.393483 
L 163.896638 189.204985 
L 164.065757 189.204985 
L 164.234876 188.890822 
L 164.319436 189.016495 
L 164.361716 188.890822 
L 164.657674 188.827997 
L 164.826793 188.639499 
L 164.869073 188.765157 
L 164.911353 188.576659 
L 164.953632 188.513834 
L 164.995912 188.702324 
L 165.080472 188.639499 
L 165.122752 188.639499 
L 165.165031 188.765157 
L 165.207311 188.576659 
L 165.249591 188.576659 
L 165.33415 188.388161 
L 165.37643 188.513834 
L 165.46099 188.388161 
L 165.503269 188.513834 
L 165.672389 188.451001 
L 165.883787 188.325336 
L 165.926067 188.513834 
L 165.968347 188.325336 
L 166.010627 188.136838 
L 166.052907 188.199671 
L 166.179746 188.325336 
L 166.306585 188.262496 
L 166.475704 188.073998 
L 166.517984 188.199671 
L 166.560264 188.073998 
L 166.771663 188.136838 
L 166.856222 187.948333 
L 166.898502 188.011173 
L 167.23674 187.69701 
L 167.448139 187.63417 
L 167.490419 187.445672 
L 167.574978 187.508512 
L 167.659538 187.571345 
L 167.786377 187.257182 
L 167.870937 187.445672 
L 167.913217 187.382847 
L 167.955496 187.257182 
L 168.040056 187.320006 
L 168.082336 187.320006 
L 168.124615 187.445672 
L 168.166895 187.320006 
L 168.251455 187.382847 
L 168.293735 187.257182 
L 168.336014 187.320006 
L 168.378294 187.068684 
L 168.462854 187.131509 
L 168.631973 187.068684 
L 168.801092 187.068684 
L 168.927931 186.943011 
L 168.970211 186.943011 
L 169.09705 186.691688 
L 169.13933 186.754521 
L 169.22389 186.691688 
L 169.393009 186.691688 
L 169.562128 186.503182 
L 169.646687 186.566023 
L 169.773527 186.314685 
L 169.815806 186.440358 
L 169.858086 186.377525 
L 169.942646 186.440358 
L 170.111765 186.189019 
L 170.154045 186.314685 
L 170.196324 186.189019 
L 170.238604 186.189019 
L 170.280884 185.937697 
L 170.365443 186.063362 
L 170.534563 185.874856 
L 170.576842 185.874856 
L 170.703682 185.686358 
L 170.788241 185.874856 
L 170.830521 185.749199 
L 171.04192 185.623533 
L 171.168759 185.560693 
L 171.211039 185.435036 
L 171.253319 185.560693 
L 171.295599 185.623533 
L 171.337878 185.497861 
L 171.464718 185.246538 
L 171.506997 185.30937 
L 171.549277 185.372195 
L 171.591557 185.246538 
L 171.718396 185.246538 
L 171.760676 185.120873 
L 171.802956 185.372195 
L 171.845236 185.246538 
L 172.014355 184.869534 
L 172.056634 184.995207 
L 172.141194 184.932375 
L 172.310313 184.806709 
L 172.352593 184.932375 
L 172.394873 184.806709 
L 172.521712 184.681044 
L 172.563992 184.869534 
L 172.606272 184.681044 
L 172.775391 184.681044 
L 172.94451 184.366881 
L 172.986789 184.429706 
L 173.029069 184.366881 
L 173.155909 184.115543 
L 173.198188 184.241208 
L 173.240468 184.115543 
L 173.367307 183.989885 
L 173.409587 183.989885 
L 173.451867 184.178383 
L 173.536427 184.05271 
L 173.620986 183.86422 
L 173.663266 183.989885 
L 173.832385 183.675722 
L 173.874665 183.801388 
L 173.959224 183.738547 
L 174.128343 183.550057 
L 174.255183 183.675722 
L 174.297462 183.550057 
L 174.339742 183.675722 
L 174.382022 183.675722 
L 174.424302 183.801388 
L 174.466582 183.612882 
L 174.593421 183.675722 
L 174.76254 183.298719 
L 174.80482 183.550057 
L 174.8471 183.550057 
L 175.016219 183.298719 
L 175.227617 183.235894 
L 175.481296 183.047396 
L 175.565856 183.110221 
L 175.650415 182.921731 
L 175.692695 183.047396 
L 175.777255 182.984556 
L 176.157773 182.60756 
L 176.369171 182.544735 
L 176.53829 182.356237 
L 176.58057 182.481895 
L 176.62285 182.41907 
L 177.087928 181.916409 
L 177.341606 181.853569 
L 177.426166 181.790744 
L 177.468446 181.916409 
L 177.510725 181.853569 
L 177.679844 181.727911 
L 177.764404 181.790744 
L 177.806684 181.727911 
L 178.018083 181.413748 
L 178.229481 181.288083 
L 178.271761 181.350908 
L 178.314041 181.288083 
L 178.609999 180.97392 
L 178.652279 181.099585 
L 178.779119 180.785422 
L 178.905958 180.848247 
L 179.075077 180.659757 
L 179.117357 180.785422 
L 179.201916 180.722582 
L 180.089791 179.403097 
L 180.132071 179.591594 
L 180.216631 179.52877 
L 180.34347 179.403097 
L 180.38575 179.52877 
L 180.42803 179.403097 
L 180.597149 179.151774 
L 180.639429 179.277431 
L 180.681708 179.214606 
L 180.893107 178.837611 
L 180.935387 178.963268 
L 180.977667 178.837611 
L 181.062226 178.711946 
L 181.146786 178.77477 
L 181.273625 178.77477 
L 181.485024 178.460607 
L 181.654143 178.397782 
L 181.696423 178.397782 
L 182.034661 177.706616 
L 182.1615 177.455293 
L 182.28834 176.135808 
L 182.372899 169.287053 
L 182.542018 129.262668 
L 182.837977 50.596226 
L 183.007096 41.108505 
L 183.091655 42.993479 
L 183.260775 57.444982 
L 183.683572 125.178551 
L 184.06409 165.956916 
L 184.444608 184.492546 
L 184.782846 191.466959 
L 185.078805 194.294427 
L 185.374763 195.111251 
L 185.417043 194.985586 
L 185.586162 194.797088 
L 185.628442 194.922753 
L 185.670722 194.734255 
L 185.713001 194.797088 
L 185.755281 194.734255 
L 185.797561 194.482925 
L 185.882121 194.545758 
L 185.9244 194.482925 
L 186.05124 193.980264 
L 186.093519 194.105929 
L 186.262638 193.540436 
L 186.431758 193.16344 
L 186.685436 192.472289 
L 187.065954 191.718297 
L 187.319633 191.089971 
L 187.700151 190.58731 
L 187.742431 190.712976 
L 187.78471 190.58731 
L 187.91155 190.398812 
L 187.953829 190.52447 
L 187.996109 190.335972 
L 188.038389 190.335972 
L 188.080669 190.147474 
L 188.165228 190.210315 
L 188.588026 189.770486 
L 188.672586 189.896151 
L 188.714865 189.770486 
L 188.926264 189.581988 
L 189.010824 189.519148 
L 189.095383 189.644821 
L 189.77186 189.644821 
L 189.814139 189.519148 
L 189.856419 189.707646 
L 189.983259 189.581988 
L 190.025538 189.770486 
L 190.110098 189.644821 
L 190.575175 189.707646 
L 190.617455 189.833311 
L 190.659735 189.644821 
L 190.702015 189.770486 
L 190.828854 189.770486 
L 190.871134 189.896151 
L 190.955693 189.833311 
L 191.124812 189.896151 
L 191.209372 189.833311 
L 191.251652 190.021809 
L 191.293932 189.896151 
L 191.378491 189.958984 
L 191.759009 190.335972 
L 191.801289 190.273147 
L 191.843569 190.335972 
L 192.097247 190.52447 
L 192.139527 190.398812 
L 192.181807 190.52447 
L 192.393206 190.650135 
L 192.435485 190.58731 
L 192.477765 190.712976 
L 192.689164 190.712976 
L 192.816003 190.901473 
L 192.858283 190.775808 
L 192.900563 190.901473 
L 193.069682 190.964298 
L 193.111962 191.089971 
L 193.154242 190.901473 
L 193.196521 191.027139 
L 193.238801 191.027139 
L 193.36564 191.278461 
L 193.49248 191.089971 
L 193.619319 191.404134 
L 193.661599 191.152796 
L 193.703879 191.278461 
L 193.746158 191.404134 
L 193.788438 191.278461 
L 193.915278 191.215636 
L 194.042117 191.404134 
L 194.084397 191.152796 
L 194.168956 191.278461 
L 194.253516 191.215636 
L 194.295796 191.404134 
L 194.380355 191.278461 
L 194.422635 191.404134 
L 194.464915 191.341302 
L 194.507194 191.278461 
L 194.549474 191.404134 
L 194.676313 191.466959 
L 194.887712 191.592625 
L 194.929992 191.592625 
L 194.972272 191.466959 
L 195.014552 191.718297 
L 195.099111 191.655465 
L 195.141391 191.592625 
L 195.26823 191.781122 
L 195.437349 191.718297 
L 195.606469 191.781122 
L 195.648748 191.781122 
L 195.817867 192.03246 
L 195.860147 191.96962 
L 195.944707 192.03246 
L 196.198385 192.03246 
L 196.409784 192.409449 
L 196.536624 192.158126 
L 196.705743 192.346624 
L 196.748022 192.409449 
L 196.790302 192.283783 
L 196.832582 192.220958 
L 196.959421 192.472289 
L 197.001701 192.346624 
L 197.043981 192.472289 
L 197.25538 192.535121 
L 197.339939 192.472289 
L 197.424499 192.597946 
L 197.593618 192.535121 
L 197.635898 192.535121 
L 197.762737 192.723612 
L 197.805017 192.597946 
L 197.847297 192.786444 
L 197.889576 192.723612 
L 197.974136 192.786444 
L 198.016416 192.786444 
L 198.058695 192.912109 
L 198.100975 192.849277 
L 198.143255 192.786444 
L 198.185535 192.849277 
L 198.270094 193.037775 
L 198.312374 192.912109 
L 198.566053 193.100607 
L 198.608332 192.974942 
L 198.692892 193.037775 
L 198.735172 193.226273 
L 198.819731 193.100607 
L 198.862011 193.16344 
L 198.946571 193.100607 
L 198.98885 193.100607 
L 199.15797 193.289105 
L 199.327089 193.100607 
L 199.496208 193.41477 
L 199.623047 193.477603 
L 199.665327 193.540436 
L 199.749886 193.477603 
L 200.045845 193.540436 
L 200.088125 193.666101 
L 200.130404 193.540436 
L 200.172684 193.477603 
L 200.257244 193.540436 
L 200.384083 193.540436 
L 200.426363 193.666101 
L 200.510922 193.603268 
L 200.595482 193.477603 
L 200.637762 193.540436 
L 200.764601 193.666101 
L 200.806881 193.603268 
L 200.84916 193.728934 
L 200.89144 193.728934 
L 200.93372 193.603268 
L 200.976 193.791766 
L 201.102839 193.728934 
L 201.271958 193.917431 
L 201.356518 193.791766 
L 201.398798 193.980264 
L 201.483357 193.854599 
L 201.652476 193.917431 
L 201.737036 193.980264 
L 201.779316 193.854599 
L 201.863875 193.917431 
L 201.948435 193.917431 
L 201.990714 193.791766 
L 202.032994 194.043097 
L 202.117554 193.917431 
L 202.202113 194.105929 
L 202.244393 194.043097 
L 202.540351 193.980264 
L 202.582631 194.168762 
L 202.624911 194.043097 
L 202.75175 193.917431 
L 202.83631 194.105929 
L 202.87859 194.043097 
L 202.963149 194.043097 
L 203.005429 193.917431 
L 203.047709 194.168762 
L 203.132268 194.105929 
L 203.428227 194.043097 
L 203.470506 194.231594 
L 203.555066 194.105929 
L 203.681905 194.168762 
L 203.724185 194.105929 
L 203.766465 194.35726 
L 203.851024 194.294427 
L 203.977864 194.294427 
L 204.104703 194.420092 
L 204.189263 194.294427 
L 204.273822 194.545758 
L 204.316102 194.482925 
L 204.358382 194.482925 
L 204.485221 194.35726 
L 204.65434 194.60859 
L 204.7389 194.35726 
L 204.781179 194.545758 
L 204.823459 194.545758 
L 204.865739 194.35726 
L 204.950299 194.482925 
L 205.077138 194.545758 
L 205.161697 194.482925 
L 205.246257 194.60859 
L 205.373096 194.545758 
L 205.457656 194.482925 
L 205.499936 194.734255 
L 205.542215 194.545758 
L 205.626775 194.60859 
L 205.795894 194.797088 
L 205.922733 194.671423 
L 205.965013 194.671423 
L 206.007293 194.545758 
L 206.091852 194.60859 
L 206.134132 194.734255 
L 206.176412 194.60859 
L 206.387811 194.671423 
L 206.430091 194.734255 
L 206.47237 194.60859 
L 206.51465 194.671423 
L 206.59921 194.60859 
L 206.64149 194.734255 
L 206.683769 194.545758 
L 206.726049 194.671423 
L 206.895168 194.734255 
L 206.937448 194.60859 
L 206.979728 194.734255 
L 207.191127 194.734255 
L 207.233406 194.859921 
L 207.275686 194.734255 
L 207.656204 194.734255 
L 207.698484 194.859921 
L 207.740764 194.797088 
L 207.825323 194.859921 
L 207.909883 194.734255 
L 208.079002 194.734255 
L 208.205841 195.048418 
L 208.290401 194.859921 
L 208.33268 194.922753 
L 208.41724 195.048418 
L 208.544079 194.797088 
L 208.670919 195.048418 
L 208.628639 194.734255 
L 208.713198 194.922753 
L 208.755478 194.797088 
L 208.797758 194.859921 
L 208.882318 194.922753 
L 208.924597 194.797088 
L 209.009157 194.859921 
L 209.178276 194.922753 
L 209.347395 195.048418 
L 209.389675 194.922753 
L 209.431955 194.985586 
L 209.474234 195.174084 
L 209.516514 194.922753 
L 209.558794 194.922753 
L 209.643353 195.111251 
L 209.685633 195.048418 
L 209.770193 195.111251 
L 209.897032 195.174084 
L 210.023871 194.922753 
L 210.066151 195.174084 
L 210.108431 194.985586 
L 210.150711 194.922753 
L 210.192991 194.985586 
L 210.23527 195.048418 
L 210.27755 194.922753 
L 210.31983 194.985586 
L 210.446669 195.048418 
L 210.573508 194.797088 
L 210.827187 194.985586 
L 210.996306 194.922753 
L 211.123146 195.048418 
L 211.249985 195.048418 
L 211.292265 194.922753 
L 211.376824 194.985586 
L 211.503664 194.922753 
L 211.715062 195.048418 
L 211.841902 194.859921 
L 211.884181 195.111251 
L 211.968741 194.985586 
L 212.011021 194.922753 
L 212.053301 194.985586 
L 212.09558 195.048418 
L 212.18014 194.985586 
L 212.22242 194.985586 
L 212.264699 195.111251 
L 212.306979 195.048418 
L 212.349259 194.985586 
L 212.391539 195.111251 
L 212.645217 195.048418 
L 212.729777 194.922753 
L 212.772057 194.985586 
L 212.941176 195.111251 
L 213.068015 195.048418 
L 213.279414 195.174084 
L 213.448533 195.048418 
L 213.490813 195.174084 
L 213.533093 194.985586 
L 213.617652 194.922753 
L 213.659932 195.048418 
L 213.702212 194.985586 
L 213.786771 195.048418 
L 214.336408 194.985586 
L 214.378688 195.174084 
L 214.420968 194.922753 
L 214.547807 195.048418 
L 214.590087 194.922753 
L 214.632367 195.111251 
L 214.843766 194.985586 
L 214.928325 194.922753 
L 215.097444 195.174084 
L 215.266563 194.985586 
L 215.351123 195.111251 
L 215.393403 194.922753 
L 215.435682 195.111251 
L 215.477962 195.111251 
L 215.562522 194.985586 
L 215.604802 195.111251 
L 215.647081 195.048418 
L 215.689361 194.922753 
L 215.731641 195.048418 
L 215.8162 195.111251 
L 215.85848 195.048418 
L 215.90076 195.048418 
L 216.069879 194.859921 
L 216.196718 195.048418 
L 216.238998 194.922753 
L 216.281278 194.922753 
L 216.408117 195.048418 
L 216.450397 194.797088 
L 216.534957 194.922753 
L 216.619516 195.174084 
L 216.661796 194.985586 
L 216.704076 195.048418 
L 216.746355 195.174084 
L 216.788635 195.111251 
L 216.830915 194.985586 
L 216.873195 195.048418 
L 216.915475 195.111251 
L 217.000034 195.048418 
L 217.380552 195.048418 
L 217.465112 194.922753 
L 217.507391 195.048418 
L 217.591951 194.985586 
L 217.930189 194.922753 
L 217.972469 194.797088 
L 218.014749 194.859921 
L 218.099308 194.922753 
L 218.141588 194.797088 
L 218.226148 194.859921 
L 218.310707 194.734255 
L 218.395267 194.797088 
L 218.522106 194.797088 
L 218.564386 194.922753 
L 218.606666 194.797088 
L 219.959618 194.734255 
L 220.001898 194.671423 
L 220.086458 194.734255 
L 221.312571 194.671423 
L 221.397131 194.545758 
L 221.43941 194.60859 
L 221.48169 194.671423 
L 221.52397 194.545758 
L 221.777649 194.545758 
L 221.819928 194.420092 
L 221.862208 194.545758 
L 221.946768 194.60859 
L 222.115887 194.35726 
L 222.327286 194.60859 
L 222.369565 194.294427 
L 222.454125 194.35726 
L 222.496405 194.35726 
L 222.538684 194.231594 
L 222.580964 194.35726 
L 222.707804 194.420092 
L 222.750083 194.168762 
L 222.834643 194.294427 
L 222.961482 194.294427 
L 223.003762 194.420092 
L 223.046042 194.231594 
L 223.215161 194.294427 
L 223.342 194.168762 
L 223.38428 194.294427 
L 223.42656 194.105929 
L 223.511119 194.231594 
L 223.553399 194.168762 
L 223.722518 193.980264 
L 223.849357 194.168762 
L 223.976197 194.043097 
L 224.018477 194.105929 
L 224.145316 194.168762 
L 224.187596 193.917431 
L 224.229875 194.168762 
L 224.272155 194.231594 
L 224.314435 194.105929 
L 224.441274 194.105929 
L 224.483554 193.980264 
L 224.568114 194.043097 
L 224.652673 193.980264 
L 224.694953 194.168762 
L 224.779513 194.105929 
L 224.864072 193.917431 
L 224.948632 194.043097 
L 225.033191 194.105929 
L 225.075471 194.043097 
L 225.16003 193.917431 
L 225.20231 193.980264 
L 225.24459 194.105929 
L 225.28687 193.917431 
L 225.32915 194.043097 
L 225.371429 194.105929 
L 225.413709 193.980264 
L 225.625108 193.854599 
L 225.667388 193.980264 
L 225.751947 193.917431 
L 225.878787 193.854599 
L 225.921066 193.728934 
L 226.005626 193.791766 
L 226.047906 193.917431 
L 226.090185 193.791766 
L 226.174745 193.854599 
L 226.217025 193.666101 
L 226.343864 193.791766 
L 226.386144 193.728934 
L 226.428424 193.854599 
L 226.470703 193.791766 
L 226.555263 193.854599 
L 226.597543 193.791766 
L 226.766662 193.540436 
L 226.851221 193.728934 
L 226.893501 193.666101 
L 227.020341 193.540436 
L 227.1049 193.666101 
L 227.14718 193.540436 
L 227.654537 193.477603 
L 227.781376 193.351938 
L 227.908216 193.41477 
L 227.950496 193.351938 
L 227.992775 193.41477 
L 228.035055 193.477603 
L 228.119615 193.41477 
L 228.161894 193.41477 
L 228.204174 193.289105 
L 228.246454 193.477603 
L 228.415573 193.41477 
L 228.753811 193.351938 
L 228.796091 193.226273 
L 228.880651 193.289105 
L 229.00749 193.351938 
L 229.04977 193.41477 
L 229.092049 193.289105 
L 229.134329 193.351938 
L 229.303448 193.289105 
L 229.430288 193.289105 
L 229.599407 192.974942 
L 229.641687 193.16344 
L 229.726246 193.100607 
L 229.768526 192.974942 
L 229.810806 193.037775 
L 229.979925 193.16344 
L 230.149044 192.974942 
L 230.191324 192.912109 
L 230.233603 193.037775 
L 230.275883 192.974942 
L 230.318163 193.100607 
L 230.402722 193.037775 
L 230.529562 193.037775 
L 230.656401 192.912109 
L 230.740961 192.849277 
L 230.78324 192.974942 
L 230.952359 192.849277 
L 230.994639 192.912109 
L 231.036919 192.849277 
L 231.079199 192.786444 
L 231.121479 192.974942 
L 231.163758 192.786444 
L 231.332877 192.723612 
L 231.375157 192.912109 
L 231.459717 192.786444 
L 231.544276 192.849277 
L 231.586556 192.597946 
L 231.671116 192.723612 
L 231.713395 192.786444 
L 231.797955 192.723612 
L 231.840235 192.535121 
L 231.882515 192.597946 
L 231.924794 192.786444 
L 232.009354 192.660787 
L 232.220753 192.597946 
L 232.389872 192.409449 
L 232.432152 192.472289 
L 232.474431 192.472289 
L 232.516711 192.346624 
L 232.558991 192.535121 
L 232.601271 192.409449 
L 233.108628 192.409449 
L 233.235467 192.283783 
L 233.277747 192.346624 
L 233.362307 192.283783 
L 233.573705 192.283783 
L 233.615985 192.158126 
L 233.658265 192.346624 
L 233.785104 192.346624 
L 233.911944 192.220958 
L 233.996503 192.283783 
L 234.038783 192.220958 
L 234.250182 192.158126 
L 234.377021 191.96962 
L 234.461581 192.158126 
L 234.503861 192.03246 
L 234.67298 191.906795 
L 234.757539 191.96962 
L 234.884378 191.718297 
L 234.926658 191.843963 
L 235.011218 191.781122 
L 235.222617 191.781122 
L 235.307176 191.592625 
L 235.391736 191.781122 
L 235.434016 191.718297 
L 235.560855 191.781122 
L 235.729974 191.5298 
L 235.772254 191.655465 
L 235.856813 191.592625 
L 235.899093 191.592625 
L 235.983653 191.404134 
L 236.025932 191.5298 
L 236.110492 191.592625 
L 236.237331 191.404134 
L 236.279611 191.466959 
L 236.321891 191.278461 
L 236.364171 191.5298 
L 236.40645 191.404134 
L 236.575569 191.215636 
L 236.744689 191.404134 
L 236.871528 191.278461 
L 236.913808 191.341302 
L 236.956087 191.341302 
L 236.998367 191.5298 
L 237.040647 191.404134 
L 237.209766 191.215636 
L 237.294326 191.404134 
L 237.336605 191.278461 
L 237.463445 191.341302 
L 237.674844 191.152796 
L 237.759403 191.278461 
L 237.801683 191.089971 
L 237.886242 191.215636 
L 238.055362 190.964298 
L 238.139921 191.027139 
L 238.182201 190.901473 
L 238.224481 190.964298 
L 238.26676 191.027139 
L 238.30904 190.964298 
L 238.478159 190.838633 
L 238.689558 191.027139 
L 238.731838 190.775808 
L 238.816397 190.838633 
L 238.858677 190.901473 
L 238.900957 190.775808 
L 238.943237 190.838633 
L 239.070076 190.712976 
L 239.112356 190.838633 
L 239.196915 190.775808 
L 239.239195 190.650135 
L 239.323755 190.712976 
L 239.450594 190.712976 
L 239.492874 190.901473 
L 239.535154 190.712976 
L 239.746552 190.712976 
L 239.873392 190.58731 
L 240.084791 190.712976 
L 240.21163 190.650135 
L 240.380749 190.398812 
L 240.423029 190.461645 
L 240.465309 190.52447 
L 240.507588 190.398812 
L 240.549868 190.461645 
L 240.718987 190.398812 
L 240.972666 190.335972 
L 241.099505 190.147474 
L 241.268624 190.335972 
L 241.480023 190.084649 
L 241.522303 190.273147 
L 241.606863 190.147474 
L 241.649142 190.021809 
L 241.691422 190.147474 
L 241.733702 190.147474 
L 241.775982 190.021809 
L 241.818261 190.084649 
L 241.945101 190.210315 
L 242.11422 189.958984 
L 242.410178 189.896151 
L 242.579297 189.707646 
L 242.621577 189.770486 
L 242.663857 189.833311 
L 242.706137 189.707646 
L 242.748416 189.770486 
L 242.790696 189.707646 
L 242.832976 189.896151 
L 242.917536 189.770486 
L 243.128934 189.770486 
L 243.255774 189.644821 
L 243.340333 189.707646 
L 243.382613 189.644821 
L 243.636292 189.644821 
L 243.678571 189.770486 
L 243.720851 189.581988 
L 243.763131 189.581988 
L 243.805411 189.707646 
L 243.847691 189.644821 
L 244.059089 189.456323 
L 244.185929 189.519148 
L 244.228209 189.456323 
L 244.270488 189.581988 
L 244.355048 189.519148 
L 244.608726 189.267825 
L 244.651006 189.330658 
L 244.693286 189.14216 
L 244.735566 189.393483 
L 245.116084 189.016495 
L 245.158364 189.016495 
L 245.200643 189.14216 
L 245.285203 188.890822 
L 245.327483 188.953662 
L 245.412042 189.016495 
L 245.581161 188.765157 
L 245.623441 188.890822 
L 245.708001 188.827997 
L 245.87712 188.765157 
L 245.919399 188.827997 
L 245.961679 188.576659 
L 246.046239 188.639499 
L 246.257638 188.639499 
L 246.426757 188.451001 
L 246.511316 188.451001 
L 246.595876 188.765157 
L 246.638156 188.513834 
L 246.764995 188.388161 
L 246.807275 188.451001 
L 246.934114 188.451001 
L 247.103233 188.262496 
L 247.230072 188.451001 
L 247.526031 188.136838 
L 247.568311 188.199671 
L 247.61059 188.073998 
L 247.65287 188.073998 
L 247.69515 188.199671 
L 247.73743 188.011173 
L 247.864269 188.136838 
L 247.991108 187.885508 
L 248.033388 188.011173 
L 248.075668 187.885508 
L 248.202507 187.885508 
L 248.329347 187.69701 
L 248.371626 187.822675 
L 248.413906 187.69701 
L 248.456186 187.63417 
L 248.498466 187.759835 
L 248.540745 187.759835 
L 248.667585 187.571345 
L 248.794424 187.822675 
L 248.921263 187.63417 
L 249.132662 187.571345 
L 249.386341 187.382847 
L 249.4709 187.320006 
L 249.59774 187.131509 
L 249.64002 187.320006 
L 249.682299 187.131509 
L 249.766859 187.194349 
L 249.809139 187.257182 
L 249.893698 187.194349 
L 249.935978 187.131509 
L 249.978258 187.257182 
L 250.062817 187.194349 
L 250.105097 187.068684 
L 250.189657 187.131509 
L 250.231936 187.131509 
L 250.401055 186.880186 
L 250.443335 187.068684 
L 250.485615 186.880186 
L 250.527895 186.880186 
L 250.654734 186.754521 
L 251.035252 186.691688 
L 251.077532 186.566023 
L 251.162091 186.628848 
L 251.204371 186.691688 
L 251.246651 186.628848 
L 251.331211 186.566023 
L 251.41577 186.691688 
L 251.45805 186.628848 
L 251.627169 186.628848 
L 251.711728 186.314685 
L 251.754008 186.503182 
L 251.923127 186.566023 
L 251.965407 186.377525 
L 252.049967 186.440358 
L 252.092246 186.503182 
L 252.134526 186.377525 
L 252.176806 186.440358 
L 252.472764 186.126194 
L 252.557324 186.25186 
L 252.599604 186.189019 
L 252.726443 186.126194 
L 252.811003 186.189019 
L 252.853282 186.063362 
L 252.895562 186.189019 
L 252.937842 186.063362 
L 253.064681 185.874856 
L 253.149241 186.000522 
L 253.191521 185.874856 
L 253.2338 185.749199 
L 253.31836 185.812031 
L 253.487479 185.749199 
L 253.910277 185.30937 
L 253.994836 185.372195 
L 254.037116 185.30937 
L 254.248515 185.183697 
L 254.290795 185.30937 
L 254.375354 184.932375 
L 254.417634 184.995207 
L 254.544473 184.995207 
L 254.671313 184.743869 
L 254.713592 184.806709 
L 254.798152 184.869534 
L 254.882712 184.681044 
L 254.924991 184.806709 
L 254.967271 184.743869 
L 255.051831 184.806709 
L 255.22095 184.492546 
L 255.263229 184.681044 
L 255.347789 184.618212 
L 255.432349 184.555371 
L 255.559188 184.366881 
L 255.643747 184.366881 
L 255.812867 184.178383 
L 255.897426 184.115543 
L 255.939706 184.178383 
L 255.981986 184.178383 
L 256.066545 183.927045 
L 256.108825 184.115543 
L 256.193385 183.989885 
L 256.235664 184.05271 
L 256.277944 183.927045 
L 256.489343 183.927045 
L 256.531623 183.675722 
L 256.616182 183.738547 
L 256.743022 183.675722 
L 256.785301 183.361559 
L 256.869861 183.487224 
L 256.912141 183.361559 
L 256.95442 183.424384 
L 256.9967 183.487224 
L 257.03898 183.361559 
L 257.12354 183.424384 
L 257.292659 183.173061 
L 257.334938 183.361559 
L 257.377218 183.173061 
L 257.546337 183.047396 
L 257.630897 183.173061 
L 257.800016 182.858898 
L 257.926855 183.047396 
L 258.053695 182.796058 
L 258.095974 182.921731 
L 258.138254 182.858898 
L 258.222814 182.921731 
L 258.349653 182.670393 
L 258.518772 182.733233 
L 258.772451 182.544735 
L 258.94157 182.670393 
L 259.110689 182.60756 
L 259.152969 182.670393 
L 259.195248 182.544735 
L 259.237528 182.356237 
L 259.322088 182.481895 
L 259.491207 182.41907 
L 259.533487 182.293397 
L 259.618046 182.356237 
L 259.702606 182.293397 
L 259.914005 182.104907 
L 260.040844 182.293397 
L 260.125403 182.230572 
L 260.167683 182.230572 
L 260.209963 182.042074 
L 260.252243 182.167732 
L 260.294523 182.230572 
L 260.336802 182.167732 
L 260.463642 181.979234 
L 260.548201 182.042074 
L 260.590481 181.979234 
L 260.632761 181.790744 
L 260.675041 181.916409 
L 260.71732 181.979234 
L 260.886439 181.665071 
L 261.140118 181.665071 
L 261.182398 181.413748 
L 261.266957 181.476581 
L 261.520636 181.288083 
L 261.732035 181.225243 
L 262.323952 180.345594 
L 262.366232 180.408419 
L 262.408511 180.596924 
L 262.450791 180.345594 
L 262.535351 180.282761 
L 262.66219 180.03143 
L 262.789029 180.157096 
L 262.958148 179.842933 
L 263.000428 179.905758 
L 263.042708 179.842933 
L 263.127267 179.905758 
L 263.169547 179.71726 
L 263.254107 179.654435 
L 263.592345 179.026109 
L 263.761464 178.77477 
L 264.099702 178.083619 
L 264.311101 177.518118 
L 264.353381 177.580958 
L 264.56478 175.69598 
L 264.691619 161.621466 
L 264.903018 97.218032 
L 265.156697 46.197943 
L 265.283536 41.296999 
L 265.325816 41.862492 
L 265.452655 48.836913 
L 265.706334 82.703698 
L 266.255971 158.856838 
L 266.594209 179.465929 
L 266.932447 189.267825 
L 267.228406 193.100607 
L 267.482084 194.734255 
L 267.608923 194.797088 
L 267.820322 194.922753 
L 267.947162 194.797088 
L 267.989441 194.859921 
L 268.031721 194.734255 
L 268.116281 194.671423 
L 268.750477 192.974942 
L 268.792757 193.037775 
L 268.835037 192.974942 
L 269.004156 192.472289 
L 269.088716 192.409449 
L 269.342394 191.781122 
L 269.469234 191.466959 
L 269.638353 191.089971 
L 269.849751 190.650135 
L 269.892031 190.712976 
L 269.934311 190.650135 
L 270.18799 190.147474 
L 270.314829 190.084649 
L 270.526228 189.770486 
L 270.822186 189.519148 
L 270.991305 189.456323 
L 271.033585 189.330658 
L 271.075865 189.519148 
L 271.118145 189.393483 
L 271.244984 189.330658 
L 271.540942 189.016495 
L 271.583222 189.330658 
L 271.667782 189.204985 
L 271.710062 189.14216 
L 271.752341 189.267825 
L 271.794621 189.330658 
L 271.836901 189.204985 
L 271.879181 189.267825 
L 272.00602 189.267825 
L 272.0483 189.14216 
L 272.132859 189.204985 
L 272.217419 189.07932 
L 272.259699 189.204985 
L 272.471097 189.267825 
L 272.513377 189.330658 
L 272.597937 189.267825 
L 272.640217 189.267825 
L 272.682496 189.393483 
L 272.724776 189.267825 
L 272.767056 189.267825 
L 272.936175 189.456323 
L 273.105294 189.393483 
L 273.316693 189.644821 
L 273.358973 189.519148 
L 273.401252 189.644821 
L 273.612651 189.770486 
L 273.78177 189.833311 
L 273.86633 189.770486 
L 273.993169 190.147474 
L 274.120009 189.896151 
L 274.204568 190.147474 
L 274.246848 189.896151 
L 274.289128 190.084649 
L 274.331408 190.147474 
L 274.373687 190.021809 
L 274.542806 190.084649 
L 274.838765 190.335972 
L 275.050164 190.398812 
L 275.177003 190.58731 
L 275.303842 190.52447 
L 275.388402 190.461645 
L 275.472961 190.712976 
L 275.515241 190.58731 
L 275.557521 190.775808 
L 275.72664 190.712976 
L 276.107158 191.089971 
L 276.149438 190.964298 
L 276.191718 191.089971 
L 276.233997 191.152796 
L 276.318557 191.089971 
L 276.360837 191.027139 
L 276.403116 191.152796 
L 276.445396 191.089971 
L 276.487676 191.152796 
L 276.529956 191.027139 
L 276.614515 190.964298 
L 276.699075 191.341302 
L 276.741355 191.215636 
L 276.910474 191.215636 
L 277.079593 191.404134 
L 277.206432 191.341302 
L 277.375551 191.718297 
L 277.417831 191.5298 
L 277.460111 191.655465 
L 277.58695 191.781122 
L 277.62923 191.718297 
L 277.798349 191.655465 
L 277.840629 191.655465 
L 277.967468 191.96962 
L 278.009748 191.781122 
L 278.052028 191.843963 
L 278.094307 192.095285 
L 278.178867 191.96962 
L 278.221147 191.906795 
L 278.263426 192.03246 
L 278.305706 191.96962 
L 278.347986 191.96962 
L 278.474825 192.095285 
L 278.559385 192.03246 
L 278.601665 192.283783 
L 278.686224 192.220958 
L 278.728504 192.095285 
L 278.770784 192.220958 
L 278.855343 192.283783 
L 278.897623 192.158126 
L 278.939903 192.220958 
L 279.109022 192.472289 
L 279.193582 192.409449 
L 279.235861 192.346624 
L 279.362701 192.597946 
L 279.40498 192.472289 
L 279.44726 192.535121 
L 279.616379 192.723612 
L 279.785498 192.597946 
L 279.996897 192.723612 
L 280.081457 192.660787 
L 280.123737 192.597946 
L 280.292856 192.912109 
L 280.419695 192.912109 
L 280.546534 193.037775 
L 280.673374 192.849277 
L 280.884772 193.037775 
L 281.011612 192.912109 
L 281.138451 193.100607 
L 281.223011 192.912109 
L 281.30757 192.974942 
L 281.43441 193.16344 
L 281.476689 192.974942 
L 281.561249 193.037775 
L 281.730368 193.289105 
L 281.772648 193.100607 
L 281.814927 193.226273 
L 281.857207 193.289105 
L 281.899487 193.16344 
L 281.941767 193.16344 
L 282.068606 193.41477 
L 282.195445 193.16344 
L 282.237725 193.351938 
L 282.280005 193.16344 
L 282.322285 193.16344 
L 282.449124 193.289105 
L 282.533684 193.289105 
L 282.575963 193.41477 
L 282.618243 193.351938 
L 282.660523 193.289105 
L 282.702803 193.41477 
L 282.829642 193.41477 
L 282.914202 193.540436 
L 282.956481 193.41477 
L 282.998761 193.540436 
L 283.1256 193.728934 
L 283.16788 193.603268 
L 283.21016 193.351938 
L 283.29472 193.477603 
L 283.421559 193.603268 
L 283.463839 193.540436 
L 283.506118 193.666101 
L 283.971196 193.666101 
L 284.140315 193.917431 
L 284.182595 193.728934 
L 284.267154 193.791766 
L 284.309434 193.728934 
L 284.393994 194.043097 
L 284.436273 193.917431 
L 284.520833 193.854599 
L 284.563113 193.917431 
L 284.605393 193.917431 
L 284.647672 193.791766 
L 284.689952 193.854599 
L 284.901351 194.105929 
L 284.943631 194.043097 
L 285.07047 193.917431 
L 285.197309 194.043097 
L 285.577827 194.105929 
L 285.620107 194.168762 
L 285.662387 194.043097 
L 285.789226 193.917431 
L 285.831506 193.980264 
L 286.042905 194.168762 
L 286.127464 194.043097 
L 286.169744 194.105929 
L 286.212024 194.043097 
L 286.254304 194.231594 
L 286.296584 194.043097 
L 286.381143 194.105929 
L 286.592542 194.231594 
L 286.634822 194.168762 
L 286.719381 194.231594 
L 286.803941 194.168762 
L 286.8885 194.294427 
L 286.93078 194.105929 
L 287.01534 194.231594 
L 287.099899 194.168762 
L 287.142179 194.35726 
L 287.226739 194.231594 
L 287.438137 194.420092 
L 287.564977 194.294427 
L 287.607257 194.35726 
L 288.114614 194.35726 
L 288.156894 194.545758 
L 288.241453 194.420092 
L 288.326013 194.35726 
L 288.410572 194.482925 
L 288.452852 194.420092 
L 288.537412 194.482925 
L 288.621971 194.545758 
L 288.74881 194.35726 
L 288.79109 194.545758 
L 288.87565 194.420092 
L 288.91793 194.35726 
L 288.960209 194.420092 
L 289.002489 194.60859 
L 289.087049 194.545758 
L 289.129328 194.545758 
L 289.171608 194.420092 
L 289.213888 194.545758 
L 289.256168 194.671423 
L 289.298447 194.60859 
L 289.467567 194.420092 
L 289.509846 194.60859 
L 289.594406 194.545758 
L 289.721245 194.545758 
L 289.848085 194.734255 
L 289.974924 194.60859 
L 290.017204 194.734255 
L 290.059483 194.60859 
L 290.270882 194.420092 
L 290.524561 194.671423 
L 290.60912 194.482925 
L 290.69368 194.545758 
L 290.77824 194.671423 
L 290.820519 194.482925 
L 290.905079 194.545758 
L 290.947359 194.671423 
L 290.989638 194.545758 
L 291.031918 194.482925 
L 291.074198 194.545758 
L 291.243317 194.60859 
L 291.623835 194.545758 
L 291.666115 194.482925 
L 291.708395 194.545758 
L 291.962073 194.734255 
L 292.131192 194.671423 
L 292.300311 194.734255 
L 292.342591 194.797088 
L 292.384871 194.734255 
L 292.55399 194.545758 
L 292.680829 194.734255 
L 292.723109 194.671423 
L 292.807669 194.734255 
L 293.991502 194.734255 
L 294.033782 194.859921 
L 294.118342 194.797088 
L 294.160621 194.734255 
L 294.202901 194.797088 
L 294.37202 194.922753 
L 294.49886 194.734255 
L 294.625699 194.797088 
L 294.794818 194.734255 
L 295.471294 194.797088 
L 295.513574 194.859921 
L 295.555854 194.734255 
L 295.598134 194.797088 
L 297.373884 194.859921 
L 297.416164 194.60859 
L 297.500724 194.734255 
L 297.585283 194.734255 
L 297.627563 194.859921 
L 297.669843 194.734255 
L 297.712122 194.734255 
L 297.754402 194.859921 
L 297.838962 194.797088 
L 297.881242 194.797088 
L 297.923521 194.922753 
L 297.965801 194.734255 
L 298.21948 194.797088 
L 298.346319 194.922753 
L 298.557718 194.734255 
L 298.726837 194.859921 
L 298.853676 194.734255 
L 298.938236 194.922753 
L 298.980516 194.797088 
L 299.065075 194.734255 
L 299.107355 194.797088 
L 299.741552 194.734255 
L 299.826111 194.922753 
L 299.952951 194.734255 
L 300.671707 194.797088 
L 300.756266 194.734255 
L 300.798546 194.859921 
L 300.840826 194.734255 
L 300.925385 194.797088 
L 301.094504 194.734255 
L 301.348183 194.734255 
L 301.390463 194.60859 
L 301.432743 194.671423 
L 301.475022 194.734255 
L 301.517302 194.671423 
L 301.686421 194.545758 
L 301.770981 194.734255 
L 301.813261 194.671423 
L 302.193779 194.60859 
L 302.236058 194.545758 
L 302.278338 194.60859 
" clip-path="url(#pda27177568)" style="fill: none; stroke: #1f77b4; stroke-width: 1.5; stroke-linecap: square"/>
   </g>
   <g id="line2d_16">
    <path d="M 48.641974 231.255827 
L 49.910368 231.712324 
L 50.713683 231.573132 
L 52.573993 230.977733 
L 54.265184 230.516981 
L 55.829536 230.313697 
L 57.351608 230.344969 
L 58.958239 230.605512 
L 60.77627 231.13084 
L 62.974818 232.005544 
L 66.018962 233.477813 
L 69.739582 235.431719 
L 69.781861 235.299886 
L 71.430773 230.523233 
L 73.121964 226.281247 
L 74.855434 222.524093 
L 76.588905 219.283765 
L 78.364655 216.429884 
L 80.182686 213.92973 
L 82.042996 211.747615 
L 83.945586 209.851128 
L 86.94745 207.253179 
L 91.133147 203.545492 
L 94.050452 200.65121 
L 96.967756 197.440755 
L 100.096459 193.659563 
L 103.098323 189.684488 
L 105.465991 186.199024 
L 107.241741 183.203681 
L 108.552414 180.570641 
L 109.567129 178.031944 
L 110.328165 175.545838 
L 110.962361 172.672477 
L 111.427439 169.57115 
L 111.807957 165.611053 
L 112.103915 160.402007 
L 112.273034 153.766171 
L 112.484433 137.912556 
L 112.653552 108.710874 
L 112.949511 44.324904 
L 112.99179 44.827183 
L 113.203189 71.420488 
L 113.668267 125.451609 
L 114.387023 176.463083 
L 114.767541 192.850321 
L 115.274898 203.5241 
L 115.570857 206.26651 
L 115.866815 207.214153 
L 116.078214 207.285513 
L 116.289613 207.05358 
L 116.670131 206.185631 
L 117.431167 203.715261 
L 119.376036 197.320583 
L 120.55987 194.245643 
L 121.701424 191.8861 
L 122.842978 190.029396 
L 123.984532 188.590237 
L 125.126085 187.503249 
L 126.267639 186.7209 
L 127.409193 186.207487 
L 128.550747 185.932689 
L 129.776861 185.86887 
L 131.129813 186.029416 
L 132.736445 186.457395 
L 134.977273 187.311624 
L 141.1924 189.792245 
L 144.109704 190.648422 
L 147.238407 191.328081 
L 150.789908 191.863512 
L 155.313844 192.305646 
L 162.755084 192.772949 
L 174.382022 193.577707 
L 184.14865 194.445328 
L 194.845433 195.50035 
L 196.874862 195.334118 
L 198.819731 194.955763 
L 200.637762 194.378303 
L 202.413512 193.57711 
L 204.146983 192.548414 
L 205.880454 191.258539 
L 207.613924 189.687362 
L 209.347395 187.811991 
L 211.038586 185.665048 
L 212.518378 183.434623 
L 213.786771 181.121705 
L 214.801486 178.823793 
L 215.647081 176.379982 
L 216.323558 173.747458 
L 216.873195 170.668964 
L 217.295993 167.014814 
L 217.634231 162.146725 
L 217.84563 156.081538 
L 218.057028 143.608994 
L 218.226148 122.221525 
L 218.606666 45.987769 
L 218.648945 47.455452 
L 218.860344 74.736585 
L 219.325422 129.640993 
L 220.086458 187.477271 
L 220.466976 201.946289 
L 221.016613 211.482653 
L 221.312571 213.309118 
L 221.56625 213.864139 
L 221.777649 213.901448 
L 222.031327 213.617837 
L 222.411845 212.771627 
L 223.088322 210.624453 
L 227.485418 195.50444 
L 229.04977 191.375842 
L 230.82552 187.33702 
L 235.434016 177.250205 
L 236.237331 174.647864 
L 236.829248 171.975532 
L 237.294326 168.858045 
L 237.674844 164.750748 
L 237.970802 159.128281 
L 238.224481 145.236428 
L 238.3936 124.990794 
L 238.774118 44.602173 
L 238.858677 49.376493 
L 240.000231 169.311529 
L 240.465309 195.985352 
L 240.845827 205.510562 
L 241.184065 210.838637 
L 241.480023 212.695715 
L 241.733702 213.222059 
L 241.902821 213.242495 
L 242.11422 213.019777 
L 242.452458 212.283662 
L 243.044375 210.379304 
L 244.524167 204.605094 
L 246.384477 197.707319 
L 247.948829 192.745964 
L 249.682299 187.990103 
L 253.27608 178.413667 
L 254.079396 175.41379 
L 254.671313 172.314771 
L 255.13639 168.587358 
L 255.474628 164.097001 
L 255.686027 158.763094 
L 255.939706 142.482894 
L 256.108825 115.722179 
L 256.447063 39.574953 
L 256.489343 43.103125 
L 257.673177 172.558727 
L 258.095974 197.604703 
L 258.476492 207.397475 
L 258.561052 208.526598 
L 258.85701 212.238175 
L 259.152969 213.618336 
L 259.364368 213.85293 
L 259.533487 213.766512 
L 259.787165 213.335209 
L 260.252243 211.983626 
L 261.140118 208.54427 
L 264.015143 197.108258 
L 265.664054 191.627933 
L 267.778043 185.449705 
L 269.638353 179.842213 
L 270.483948 176.602556 
L 271.118145 173.260979 
L 271.583222 169.565567 
L 271.92146 165.2163 
L 272.132859 160.784909 
L 272.386538 145.242866 
L 272.555657 120.312534 
L 272.893895 36.119676 
L 272.936175 38.903874 
L 274.035449 165.450775 
L 274.500527 196.809521 
L 274.838765 206.641628 
L 275.007884 209.129939 
L 275.303842 212.74809 
L 275.599801 213.988902 
L 275.8112 214.130742 
L 276.022598 213.911797 
L 276.360837 213.10617 
L 276.952754 211.000523 
L 278.559385 204.125724 
L 280.419695 196.629267 
L 282.153166 190.5918 
L 285.916066 177.943393 
L 286.592542 174.487362 
L 287.099899 170.651319 
L 287.480417 165.926223 
L 287.691816 161.575047 
L 287.945495 145.708112 
L 288.114614 119.816367 
L 288.410572 33.831719 
L 288.495132 38.619843 
L 289.298447 140.045368 
L 290.101763 198.984106 
L 290.482281 208.357353 
L 290.524561 208.506564 
L 290.820519 212.631472 
L 291.116478 214.034955 
L 291.327877 214.211119 
L 291.496996 214.062717 
L 291.792954 213.415649 
L 292.342591 211.504298 
L 293.568705 206.160819 
L 295.724973 196.959601 
L 297.500724 190.39913 
L 300.756266 178.683457 
L 301.432743 175.176953 
L 301.9401 171.377553 
L 302.278338 167.454369 
L 302.278338 167.454369 
" clip-path="url(#pda27177568)" style="fill: none; stroke-dasharray: 5.55,2.4; stroke-dashoffset: 0; stroke: #ff7f0e; stroke-width: 1.5"/>
   </g>
   <g id="patch_3">
    <path d="M 35.960156 245.511719 
L 35.960156 23.751719 
" style="fill: none; stroke: #000000; stroke-linejoin: miter; stroke-linecap: square"/>
   </g>
   <g id="patch_4">
    <path d="M 35.960156 245.511719 
L 314.960156 245.511719 
" style="fill: none; stroke: #000000; stroke-linejoin: miter; stroke-linecap: square"/>
   </g>
   <g id="text_17">
    <text style="font-size: 9px; font-family: 'Arial', sans-serif, serif; text-anchor: middle" x="175.460156" y="13.751719" transform="rotate(-0 175.460156 13.751719)">Best model extrapolated for 190 ms</text>
   </g>
   <g id="legend_1">
    <g id="line2d_17">
     <path d="M 142.563281 223.861328 
L 150.063281 223.861328 
L 157.563281 223.861328 
" style="fill: none; stroke: #1f77b4; stroke-width: 1.5; stroke-linecap: square"/>
    </g>
    <g id="text_18">
     <text style="font-size: 7.5px; font-family: 'Arial', sans-serif, serif; text-anchor: start" x="163.563281" y="226.486328" transform="rotate(-0 163.563281 226.486328)">Observation (x_o)</text>
    </g>
    <g id="line2d_18">
     <path d="M 142.563281 234.558203 
L 150.063281 234.558203 
L 157.563281 234.558203 
" style="fill: none; stroke-dasharray: 5.55,2.4; stroke-dashoffset: 0; stroke: #ff7f0e; stroke-width: 1.5"/>
    </g>
    <g id="text_19">
     <text style="font-size: 7.5px; font-family: 'Arial', sans-serif, serif; text-anchor: start" x="163.563281" y="237.183203" transform="rotate(-0 163.563281 237.183203)">Extrapolated single-compartment prediction</text>
    </g>
   </g>
  </g>
 </g>
 <defs>
  <clipPath id="pda27177568">
   <rect x="35.960156" y="23.751719" width="279" height="221.76"/>
  </clipPath>
 </defs>
</svg>
